<?xml version="1.0" standalone="no"?>
<!DOCTYPE svg PUBLIC "-//W3C//DTD SVG 20010904//EN"
 "http://www.w3.org/TR/2001/REC-SVG-20010904/DTD/svg10.dtd">
<svg version="1.0" xmlns="http://www.w3.org/2000/svg"
 width="536.000000pt" height="638.000000pt" viewBox="0 0 536.000000 638.000000"
 preserveAspectRatio="xMidYMid meet">

<g transform="translate(0.000000,638.000000) scale(0.100000,-0.100000)"
fill="#000000" stroke="none">
<path d="M2483 4776 c-120 -30 -238 -114 -302 -215 -32 -50 -65 -137 -76 -204
-6 -39 -7 -39 -43 -32 -148 28 -334 22 -471 -15 -100 -27 -260 -106 -341 -168
-145 -110 -270 -267 -339 -424 l-34 -77 -50 -11 c-114 -24 -237 -121 -286
-224 -80 -170 -34 -338 118 -437 l24 -15 -56 -27 c-176 -87 -253 -282 -197
-501 31 -122 82 -208 185 -312 73 -74 106 -99 175 -133 47 -23 113 -47 146
-53 l62 -12 17 -56 c27 -88 89 -213 146 -295 252 -365 705 -531 1122 -410 45
13 83 22 85 20 2 -1 -36 -205 -84 -451 -97 -505 -98 -523 -43 -580 18 -19 49
-39 69 -45 22 -7 184 -9 451 -7 l416 3 34 27 c19 14 43 45 54 67 l18 41 -82
492 c-45 270 -80 492 -78 494 1 2 43 -12 92 -31 122 -46 206 -59 339 -53 202
9 367 87 512 242 123 130 196 270 238 456 22 99 23 101 62 121 171 91 300 212
383 360 70 124 108 299 95 432 -13 139 -72 300 -150 410 -19 26 -34 49 -34 52
0 2 20 23 45 46 28 26 60 71 83 117 33 68 37 83 37 156 0 97 -24 159 -87 223
-60 61 -125 87 -223 87 -66 0 -90 -4 -137 -26 l-57 -27 -46 86 c-112 211 -278
353 -495 425 -87 29 -107 31 -230 32 -74 1 -157 -3 -185 -7 l-50 -8 -33 64
c-89 173 -265 321 -462 387 -82 27 -260 36 -337 16z"/>
</g>
</svg>
