<?xml version="1.0" standalone="no"?>
<!DOCTYPE svg PUBLIC "-//W3C//DTD SVG 20010904//EN"
 "http://www.w3.org/TR/2001/REC-SVG-20010904/DTD/svg10.dtd">
<svg version="1.0" xmlns="http://www.w3.org/2000/svg"
 width="2000.000000pt" height="2000.000000pt" viewBox="0 0 2000.000000 2000.000000"
 preserveAspectRatio="xMidYMid meet">

<g transform="translate(0.000000,2000.000000) scale(0.100000,-0.100000)"
fill="#000000" stroke="none">
<path d="M9785 16799 c-1754 -108 -3188 -737 -4419 -1939 -529 -517 -965
-1102 -1242 -1669 -36 -73 -62 -137 -57 -141 19 -18 2075 -1599 2142 -1647 40
-29 76 -53 80 -53 3 0 19 35 35 78 115 308 318 691 520 977 200 284 543 649
806 858 600 478 1285 762 2070 859 142 18 729 18 870 0 643 -80 1184 -277
1685 -616 110 -74 289 -214 408 -318 40 -35 56 -43 88 -43 39 0 50 11 945 905
498 498 912 917 920 932 22 42 17 83 -13 119 -40 47 -293 256 -474 391 -1067
797 -2236 1229 -3536 1308 -195 11 -633 11 -828 -1z"/>
<path d="M10193 11265 c-17 -7 -40 -26 -50 -41 -17 -27 -18 -83 -15 -1283 2
-1370 -1 -1289 58 -1311 16 -6 693 -10 1790 -10 1924 0 1825 3 1840 -55 16
-62 -29 -236 -131 -515 -207 -561 -563 -1040 -1073 -1444 l-102 -81 70 -64
c38 -35 519 -413 1067 -841 l998 -777 67 59 c770 681 1427 1829 1733 3027 238
936 287 1928 149 3041 -28 226 -41 265 -95 292 -32 17 -203 18 -3154 18 -2631
-1 -3125 -3 -3152 -15z"/>
</g>
</svg>
