<?xml version="1.0" standalone="no"?>
<!DOCTYPE svg PUBLIC "-//W3C//DTD SVG 20010904//EN"
 "http://www.w3.org/TR/2001/REC-SVG-20010904/DTD/svg10.dtd">
<svg version="1.0" xmlns="http://www.w3.org/2000/svg"
 width="1313.000000pt" height="588.000000pt" viewBox="0 0 1313.000000 588.000000"
 preserveAspectRatio="xMidYMid meet">

<g transform="translate(0.000000,588.000000) scale(0.100000,-0.100000)"
fill="#000000" stroke="none">
<path d="M1315 5870 c-221 -24 -420 -122 -572 -284 -82 -88 -130 -159 -167
-250 l-23 -55 -37 25 c-68 46 -145 76 -198 77 -59 1 -78 -17 -78 -71 0 -48 44
-175 92 -262 22 -41 36 -76 30 -78 -29 -9 -106 -69 -141 -108 -69 -79 -86
-125 -86 -239 0 -90 3 -105 28 -155 31 -59 93 -129 144 -161 l32 -20 -53 -73
c-273 -381 -125 -901 319 -1117 145 -70 241 -93 400 -93 72 -1 153 2 181 7
l52 7 27 -46 c61 -104 200 -218 335 -275 69 -30 77 -41 79 -110 1 -32 36 -166
55 -210 6 -14 -3 -17 -55 -23 -35 -4 -97 -18 -138 -32 l-76 -24 -15 22 c-105
154 -269 269 -456 319 -111 30 -297 30 -408 0 -225 -60 -411 -209 -506 -406
-51 -104 -72 -197 -72 -315 -1 -252 121 -469 347 -620 28 -18 52 -35 54 -37 3
-2 -5 -13 -16 -26 -52 -56 -69 -140 -35 -169 9 -8 29 -18 45 -22 32 -8 140 8
214 31 l53 17 47 -49 c28 -28 76 -61 113 -79 58 -27 75 -31 155 -31 77 0 98 4
150 28 32 15 74 39 91 52 60 46 60 34 4 -373 -27 -204 -50 -388 -50 -410 0
-33 6 -45 31 -66 l31 -26 457 0 457 0 27 28 c19 19 27 39 27 63 0 18 -29 168
-65 332 -36 164 -65 305 -65 315 0 12 19 24 60 40 85 33 200 111 273 185 l62
63 101 12 c222 26 390 119 493 273 42 63 81 169 81 220 0 34 8 35 58 10 137
-70 348 -99 393 -54 18 18 21 28 15 66 -13 83 -84 213 -193 349 -43 55 -66 74
-123 101 l-69 33 35 50 c97 135 144 279 145 439 0 178 -35 293 -132 436 -48
71 -146 169 -216 215 -57 38 -201 108 -243 119 l-25 6 0 127 c0 109 -3 133
-21 167 -37 71 -95 55 -169 -45 l-36 -50 -83 83 c-144 144 -306 218 -514 234
-89 7 -86 4 -106 71 -6 17 -3 22 9 22 30 0 159 66 220 113 59 45 112 106 155
180 12 20 24 37 25 37 2 0 30 -16 62 -35 285 -172 629 -166 827 16 105 96 156
210 156 348 0 136 -51 274 -146 393 -48 61 -177 170 -231 196 -27 13 -36 26
-53 76 -55 168 -226 317 -411 361 -135 31 -305 16 -427 -40 l-54 -25 -56 39
c-188 127 -411 184 -627 161z m1881 -3874 c103 -52 157 -95 217 -174 56 -73
59 -79 48 -86 -5 -3 -32 25 -61 64 -28 38 -70 84 -92 101 -45 36 -201 119
-223 119 -8 0 -15 5 -15 10 0 20 40 9 126 -34z"/>
<path d="M8586 5711 c-20 -31 -15 -173 10 -322 6 -36 6 -37 -57 -70 -80 -43
-185 -140 -238 -223 -55 -83 -98 -205 -111 -312 -12 -95 -8 -161 17 -266 l15
-67 -36 -43 c-58 -67 -81 -179 -56 -268 5 -20 23 -57 40 -83 l30 -48 -35 -47
c-80 -103 -135 -268 -135 -400 0 -67 -2 -73 -17 -67 -10 4 -43 17 -73 28 -30
11 -56 21 -57 22 -1 0 13 29 30 65 30 61 32 70 32 180 0 103 -3 121 -26 170
-14 30 -39 70 -55 89 -27 33 -29 39 -29 130 0 76 -5 106 -22 144 -26 56 -43
59 -99 18 l-40 -30 -31 62 c-65 131 -154 227 -259 280 -282 142 -589 -94 -681
-523 -24 -114 -24 -353 1 -460 9 -41 19 -86 22 -100 5 -22 1 -27 -28 -38 -19
-6 -37 -12 -41 -12 -3 0 -22 24 -40 53 -37 57 -103 120 -152 144 l-30 14 0
122 c-1 203 -49 331 -172 455 l-72 74 14 61 c8 34 15 81 15 105 0 39 5 48 60
101 108 106 164 270 142 414 -21 139 -107 266 -219 323 -53 26 -67 29 -158 29
-89 0 -106 -3 -157 -28 -31 -15 -80 -48 -108 -74 l-50 -45 -47 11 c-26 7 -85
15 -131 18 -79 6 -84 8 -93 32 -44 115 -113 197 -205 242 -224 111 -465 -72
-476 -361 l-3 -65 -48 -3 c-96 -6 -84 -67 44 -226 l70 -87 -17 -67 c-22 -87
-22 -237 0 -322 28 -110 90 -223 168 -306 38 -40 90 -86 114 -101 24 -15 44
-31 44 -35 0 -4 -14 -30 -30 -57 -81 -131 -125 -331 -117 -526 16 -364 178
-666 425 -790 39 -20 52 -31 48 -43 -20 -66 -28 -132 -28 -227 1 -197 67 -364
202 -508 l75 -80 1 -111 c1 -119 18 -184 69 -272 77 -132 231 -215 342 -185
151 41 243 213 214 402 -7 39 -10 73 -9 74 2 1 36 19 76 40 40 21 95 58 122
82 26 23 50 43 53 43 3 0 9 -14 12 -32 13 -55 63 -169 97 -220 41 -60 61 -61
115 -5 44 44 133 182 133 204 0 7 4 13 8 13 4 0 -14 -377 -40 -837 -26 -461
-47 -849 -48 -862 0 -13 14 -37 34 -57 l35 -35 446 3 447 3 24 28 c19 22 24
39 24 80 0 29 -36 446 -79 927 -44 481 -78 877 -76 878 2 2 16 -20 31 -50 61
-122 161 -236 265 -301 58 -37 162 -77 199 -77 20 0 21 -4 15 -54 -4 -30 -4
-77 0 -105 6 -42 11 -52 30 -57 28 -7 92 21 159 69 l50 36 46 -43 c169 -158
396 -184 580 -66 184 118 291 363 262 597 -17 135 -54 223 -147 350 -16 20
-14 24 27 75 143 176 133 422 -24 579 l-50 50 51 55 c68 74 124 189 125 255 1
60 -17 79 -74 79 l-37 0 15 68 c14 66 12 248 -4 330 -6 30 -4 32 20 32 58 0
121 54 157 135 32 69 31 170 0 243 -22 48 -71 104 -102 114 -10 3 -8 12 8 34
74 105 124 260 128 400 l2 93 46 51 c170 189 166 483 -10 658 -29 29 -79 65
-110 80 -50 23 -71 27 -153 27 -84 0 -101 -3 -150 -28 -30 -16 -78 -51 -106
-78 l-51 -50 -12 29 c-18 42 -114 132 -215 201 -93 63 -101 67 -110 52z m128
-251 c10 -22 48 -67 89 -105 78 -72 78 -88 -1 -25 -51 40 -103 106 -116 148
-12 38 9 24 28 -18z m-1906 -3515 c3 -85 4 -90 37 -127 19 -21 35 -43 35 -48
0 -20 -20 -9 -47 26 -27 37 -28 37 -34 13 -4 -13 -8 -37 -8 -54 -1 -32 -16
-63 -26 -54 -3 4 2 51 11 105 10 61 14 126 10 167 -4 51 -2 67 7 64 8 -2 13
-35 15 -92z"/>
<path d="M3625 5498 c-16 -23 -49 -126 -59 -185 l-5 -31 59 -4 c53 -3 60 -1
60 15 0 10 -12 34 -26 53 -15 19 -23 34 -19 34 4 0 14 -8 21 -17 12 -16 13
-11 14 35 0 28 5 52 10 52 6 0 10 -33 10 -77 0 -43 4 -83 8 -89 4 -6 28 -14
55 -18 l47 -7 0 33 c0 68 -102 228 -145 228 -8 0 -21 -10 -30 -22z"/>
<path d="M11285 4703 c-44 -46 -91 -140 -107 -215 -15 -74 0 -129 52 -180 79
-79 168 -37 210 98 27 90 26 156 -5 222 -57 122 -89 138 -150 75z m69 -155
c-15 -33 -19 -65 -19 -150 0 -59 -3 -108 -6 -108 -9 0 -21 99 -14 110 4 6 -8
36 -26 67 -18 31 -27 53 -21 49 7 -4 20 -22 29 -39 l16 -32 13 58 c15 63 32
102 41 93 4 -3 -2 -25 -13 -48z"/>
<path d="M9946 4185 c-24 -25 -29 -59 -22 -149 9 -123 55 -266 84 -266 4 0 20
27 35 60 16 33 51 87 78 121 51 60 51 60 33 87 -73 115 -171 184 -208 147z"/>
<path d="M11188 3656 c-21 -8 -50 -22 -65 -32 -33 -21 -133 -114 -133 -123 0
-4 30 -19 66 -35 36 -16 92 -49 125 -73 32 -23 61 -43 63 -43 7 0 44 122 50
165 7 54 -8 116 -35 138 -25 20 -23 20 -71 3z"/>
<path d="M4830 3413 c-14 -3 -48 -11 -77 -19 l-52 -15 40 -62 c22 -33 42 -71
45 -84 4 -13 14 -23 23 -23 9 0 32 -3 52 -6 36 -6 37 -6 53 42 9 27 19 70 22
95 6 41 4 48 -17 63 -23 16 -40 18 -89 9z"/>
<path d="M12502 3305 c-35 -8 -79 -24 -98 -36 -38 -23 -74 -73 -74 -101 0 -20
15 -24 26 -7 11 18 86 49 119 49 59 0 106 -21 157 -70 l50 -48 45 41 c50 46
86 108 81 140 -2 15 -14 26 -38 34 -47 16 -190 15 -268 -2z"/>
<path d="M11086 2514 c-101 -52 -198 -74 -330 -74 -63 0 -138 7 -175 15 -35 9
-65 14 -67 12 -2 -2 -33 -470 -70 -1041 -58 -906 -65 -1040 -53 -1063 28 -52
43 -54 509 -51 l430 3 27 28 c22 22 28 36 27 70 -2 71 -218 2137 -224 2137 -3
-1 -36 -17 -74 -36z"/>
<path d="M4865 1259 c-16 -5 -75 -14 -130 -20 -95 -11 -102 -13 -141 -49 -22
-20 -53 -45 -67 -55 -15 -9 -24 -21 -22 -26 3 -4 49 -22 103 -40 121 -39 293
-52 355 -26 32 14 37 20 37 50 0 33 -34 94 -82 148 -20 23 -27 26 -53 18z"/>
<path d="M3475 1068 c-21 -95 -102 -620 -98 -640 3 -15 16 -37 30 -50 l25 -23
466 -3 c360 -1 473 1 492 11 14 6 33 28 42 48 l18 35 -74 278 c-40 152 -75
279 -77 281 -3 2 -36 -6 -74 -17 -60 -18 -96 -21 -250 -22 -167 0 -186 2 -268
27 -48 15 -119 43 -157 62 l-70 35 -5 -22z"/>
</g>
</svg>
